<?xml version="1.0" standalone="no"?>
<!DOCTYPE svg PUBLIC "-//W3C//DTD SVG 20010904//EN"
 "http://www.w3.org/TR/2001/REC-SVG-20010904/DTD/svg10.dtd">
<svg version="1.0" xmlns="http://www.w3.org/2000/svg"
 width="225.000000pt" height="225.000000pt" viewBox="0 0 225.000000 225.000000"
 preserveAspectRatio="xMidYMid meet">
<metadata>
Created by potrace 1.11, written by Peter Selinger 2001-2013
</metadata>
<g transform="translate(0.000000,225.000000) scale(0.100000,-0.100000)"
fill="#000000" stroke="none">
<path d="M926 1994 c-151 -33 -283 -105 -406 -221 -173 -163 -258 -335 -280
-566 -25 -265 61 -513 245 -702 121 -124 232 -193 392 -242 79 -24 104 -26
243 -27 115 0 173 4 224 17 255 64 482 254 595 499 62 132 75 200 75 373 -1
122 -5 165 -22 229 -49 176 -161 348 -305 463 -85 68 -228 144 -322 169 -86
24 -347 28 -439 8z m363 -281 c92 -23 190 -82 267 -158 272 -271 228 -720 -90
-933 -116 -78 -184 -97 -341 -97 -110 0 -140 4 -197 23 -173 60 -320 207 -380
380 -19 57 -23 87 -23 197 0 156 19 225 97 340 145 218 408 316 667 248z"/>
<path d="M999 1596 c-123 -35 -249 -137 -303 -244 -99 -195 -65 -415 88 -568
156 -156 379 -188 578 -82 111 59 212 194 239 319 16 74 6 212 -21 279 -46
118 -161 234 -280 281 -69 27 -231 35 -301 15z m212 -352 c80 -60 146 -113
146 -119 0 -5 -66 -59 -146 -119 -80 -60 -161 -120 -178 -134 l-33 -24 0 277
0 277 33 -24 c17 -14 98 -74 178 -134z"/>
</g>
</svg>
